<?xml version="1.0" encoding="utf-8"?>
<!-- Generator: Adobe Illustrator 24.2.3, SVG Export Plug-In . SVG Version: 6.00 Build 0)  -->
<svg version="1.1" id="Calque_1" xmlns="http://www.w3.org/2000/svg" xmlns:xlink="http://www.w3.org/1999/xlink" x="0px" y="0px"
	 viewBox="0 0 132.9 129.4" style="enable-background:new 0 0 132.9 129.4;" xml:space="preserve">
<style type="text/css">
	.st0{fill-rule:evenodd;clip-rule:evenodd;fill:#EAF0FF;}
	.st1{fill-rule:evenodd;clip-rule:evenodd;fill:#EF4D55;}
	.st2{fill-rule:evenodd;clip-rule:evenodd;fill:#FFFFFF;}
	.st3{fill:#22234F;}
</style>
<g id="Page-1">
	<g id="Home" transform="translate(-206.000000, -780.000000)">
		<g id="Adopter-un-acte-reflechi" transform="translate(206.000000, 780.000000)">
			<path id="Oval" class="st0" d="M3.5,40.6C-8.1,74.1,9.8,110.5,43.4,122c19.2,6.6,39.8,10.2,55.8,0.2
				c11.9-7.5,16.9-30.8,21.9-45.1c11.6-33.4,11.1-66.6-35.6-76.2c-37.1-7.6-41,9-60.8,23C14.7,30.9,8.9,25.3,3.5,40.6z"/>
			<path id="Path-4" class="st1" d="M44.8,104.4c0-13.5,4.7-21.6,14.1-24.2c4.6,5.8,7.8,8.7,9.3,8.7c1.6,0,5-2.9,10.4-8.7
				c3.4,1.4,7.1,3.9,11.2,7.6c4.1,3.7,5.1,10.8,3,21.2h-48V104.4z"/>
			<path id="Path-3" class="st2" d="M72.2,106.8L97.6,73l-2.5-6.6l12.7-2.4c5.6,5.5,8.8,9.3,9.6,11.1c0.8,1.9,6,2.6,15.5,2.1
				c-0.6,10.8-8.6,15.4-24,13.7l-7.9,15.8H72.2z"/>
			<path id="Combined-Shape" class="st2" d="M72.3,17.2c9.5,0,17.1,7.6,17.5,17l0,0v10.9h-6.9l0,0l0-7.5l-22.9,6.3
				c-2.3,0.8-4.9,1.5-7.6,2.1l-0.6,0.1V34.8c0-9.7,7.8-17.6,17.5-17.6H72.3z"/>
			<g id="_x30_03-veterinary" transform="translate(58.000000, 35.000000)">
				<path id="Path" class="st3" d="M43.6,61.6c-0.8-0.3-1.7,0.1-2,0.8l-1.9,4.3c-0.7,1.6,2.1,2.7,2.9,1l1.9-4.3
					C44.8,62.7,44.4,61.9,43.6,61.6z"/>
				<path id="Shape" class="st3" d="M71.9,39.5c-0.6-0.9-1.6-1.3-2.7-1.3h-5.6c-0.4,0-0.9-0.2-1.1-0.6l-4.5-6
					c-1.6-2.1-4-3.5-6.6-3.8c-0.5-1.8-2.4-3-4.2-2.7L37.4,27c-2.4,0.5-3.7,3.1-2.5,5.3l1.5,2.8l-7.7,10c-2.9-2.3-6.7-3.8-9.9-5.5
					c-1.9-1-3.1-2.9-3.1-5v-1.8c1.7-0.4,3.4-0.9,5-1.6l0,0c3.5-1.5,5.8-4.9,5.8-8.7V16h1.3c3.6,0,5.2-4.6,2.5-6.9v-10
					c0-11.3-9.2-20.5-20.5-20.5c-4.8,0-9.4,1.7-13,4.7c-1.3,1.1,0.3,3.1,1.7,2c3.2-2.6,7.2-4.1,11.4-4.1c9.9,0,17.9,8,17.9,17.9v9.1
					h-1.1v-9.3c0-3.4-2.7-6.1-6.1-6.1c-1.8-0.1-3.6,0.5-4.9,1.8C9.8,0.3,2.2,4.5-6,4.7c-0.7,0-1.3,0.6-1.3,1.3v2.2h-0.9v-9.1
					c0-3.5,1-6.9,2.9-9.8c0.9-1.4-1.3-2.9-2.2-1.5C-9.6-8.9-10.8-5-10.8-0.9v9.9c-3,2.2-1.4,7.1,2.3,7.1h1.3v6.4
					c0,3.8,2.3,7.2,5.8,8.7c1.9,0.8,3.8,1.3,5.7,1.7v1.6c0,2.1-1.2,4.1-3.1,5C-1,40.7-3.2,41.8-5.5,43c-7.4,3.8-12,11.4-12,19.7v4.6
					c0,1.7,2.6,1.7,2.6,0v-4.6c0-7.3,4-14,10.5-17.4l4.7-2.4l9,9c0.6,0.5,1.2,0.5,1.9,0l8.7-8.7c2.3,1.2,5,2.3,7,3.9L12.2,66.4
					c-1,1.3,1.1,2.9,2.1,1.6l23.4-30.4l2.7,5.1c1.5,2.8,5.7,2.4,6.7-0.5l4.1-11.9c1.9,0.2,3.6,1.2,4.7,2.8l4.5,6
					c1.1,1.5,2.8,1.7,4.6,1.6c0.4,2,1.5,4.3,3.4,5.3c-1.5,2.4-4.1,4-7,4H49.4c-1.7,0-3.2,1-3.8,2.6L44,56.9c-0.6,1.5,1.8,2.6,2.5,1
					l1.7-4.2c0.2-0.5,0.7-0.9,1.3-0.9h11.9c4.8,0,9-3.2,10.4-7.8l0.7-2.5C72.7,41.4,72.5,40.4,71.9,39.5L71.9,39.5z M27.7,10.8
					c1.6,0,1.7,2.5,0,2.5h-1.3v-2.5H27.7z M-8.5,13.4c-1.6,0-1.7-2.5,0-2.5h1.3v2.5H-8.5z M-4.6,22.4V7.3c8.3-0.5,16.1-5,21.9-10.8
					c2.2-2.2,6.5-0.8,6.5,2.4v23.5c0,2.8-1.6,5.2-4.2,6.3l0,0c-6.5,2.7-13.6,2.7-20.1,0C-3,27.6-4.6,25.2-4.6,22.4z M10.4,49.1
					l-7.5-7.5c3-1.8,4.1-5,4-8.4c2,0.2,4.1,0.2,6.1-0.1c-0.1,3.6,1.2,7,4.6,8.8L10.4,49.1z M48.8,29l-4.3,12.3
					c-0.3,0.8-1.4,0.9-1.9,0.1L37.2,31c-0.3-0.7,0-1.2,0.7-1.5l9.8-1.9C48.5,27.5,49.1,28.3,48.8,29L48.8,29z M69.2,40.8
					c0.5,0.1,0.7,0.4,0.7,0.9l-0.6,1.9c-0.8-0.6-1.4-1.7-1.7-2.8H69.2z"/>
			</g>
		</g>
	</g>
</g>
</svg>
