<?xml version="1.0" encoding="utf-8"?>
<!-- Generator: Adobe Illustrator 24.2.3, SVG Export Plug-In . SVG Version: 6.00 Build 0)  -->
<svg version="1.1" id="Calque_1" xmlns="http://www.w3.org/2000/svg" xmlns:xlink="http://www.w3.org/1999/xlink" x="0px" y="0px"
	 viewBox="0 0 130.9 128.6" style="enable-background:new 0 0 130.9 128.6;" xml:space="preserve">
<style type="text/css">
	.st0{fill-rule:evenodd;clip-rule:evenodd;fill:#EAF0FF;}
	.st1{fill-rule:evenodd;clip-rule:evenodd;fill:#EF4D55;}
	.st2{filter:url(#Adobe_OpacityMaskFilter);}
	.st3{fill-rule:evenodd;clip-rule:evenodd;fill:#FFFFFF;}
	.st4{mask:url(#mask-2_1_);fill-rule:evenodd;clip-rule:evenodd;fill:#22234F;}
	.st5{filter:url(#Adobe_OpacityMaskFilter_1_);}
	.st6{mask:url(#mask-4_1_);fill-rule:evenodd;clip-rule:evenodd;fill:#22234F;}
	.st7{filter:url(#Adobe_OpacityMaskFilter_2_);}
	.st8{mask:url(#mask-4_2_);fill-rule:evenodd;clip-rule:evenodd;fill:#22234F;}
	.st9{filter:url(#Adobe_OpacityMaskFilter_3_);}
	.st10{mask:url(#mask-4_3_);fill-rule:evenodd;clip-rule:evenodd;fill:#22234F;}
	.st11{filter:url(#Adobe_OpacityMaskFilter_4_);}
	.st12{mask:url(#mask-4_4_);fill-rule:evenodd;clip-rule:evenodd;fill:#22234F;}
	.st13{filter:url(#Adobe_OpacityMaskFilter_5_);}
	.st14{mask:url(#mask-4_5_);fill-rule:evenodd;clip-rule:evenodd;fill:#FFFFFF;}
	.st15{filter:url(#Adobe_OpacityMaskFilter_6_);}
	.st16{mask:url(#mask-4_6_);fill-rule:evenodd;clip-rule:evenodd;fill:#22234F;}
</style>
<g id="Page-1">
	<g id="Home" transform="translate(-887.000000, -779.000000)">
		<g id="Faire-un-don" transform="translate(887.396404, 779.117752)">
			<path id="Oval-Copy-2" class="st0" d="M116.3,109c22.2-27.3,18-67.2-9.4-89.3c-15.6-12.6-33.5-23-51.8-19
				c-13.7,3-26.2,23-35.7,34.6c-22.2,27.3-33,58.4,7.2,83.1c31.9,19.6,41.2,5.4,64.4-0.9C102.6,114.3,106.1,121.5,116.3,109z"/>
			<circle id="Oval" class="st1" cx="82.6" cy="71.4" r="26.5"/>
			<path id="Combined-Shape" class="st1" d="M37.8,57c1.5-2.3,4.4-2.8,6.4-1.1c2.1,1.7,2.5,4.9,1,7.2c-1,1.5-3.2,3.8-6.7,6.8
				c0-0.1,0-0.1,0-0.2l0,0.2l0,0c-4.6-3-7.5-5.3-8.5-6.8c-1.5-2.3-1-5.5,1-7.2c2.1-1.7,4.9-1.2,6.4,1.1c0.1,0.1,0.1,0.2,0.2,0.3
				C37.7,57.2,37.7,57.1,37.8,57z"/>
			<g id="Group-11" transform="translate(27.603596, 37.882248)">
				<g id="Group-3">
					<g id="Clip-2">
					</g>
					<defs>
						<filter id="Adobe_OpacityMaskFilter" filterUnits="userSpaceOnUse" x="-19.5" y="-18" width="52" height="96">
							<feColorMatrix  type="matrix" values="1 0 0 0 0  0 1 0 0 0  0 0 1 0 0  0 0 0 1 0"/>
						</filter>
					</defs>
					<mask maskUnits="userSpaceOnUse" x="-19.5" y="-18" width="52" height="96" id="mask-2_1_">
						<g class="st2">
							<polygon id="path-1_1_" class="st3" points="-19.5,-18 32.5,-18 32.5,78 -19.5,78 							"/>
						</g>
					</mask>
					<path id="Fill-1" class="st4" d="M26.5,78h-40c-3.3,0-5.9-2.8-5.9-6.3V-12c0-3.4,2.6-6,5.9-6h40c3.4,0,6.1,2.6,6.1,6v23h-3.2
						v-23c0-1.6-1.2-2.7-2.8-2.7h-40c-1.6,0-2.7,1.1-2.7,2.7v83.7c0,1.5,1,3.1,2.7,3.1h40c1.5,0,2.8-1.4,2.8-3.1V48.2h3.2v23.5
						C32.5,75.2,29.8,78,26.5,78"/>
				</g>
				<g id="Clip-5">
				</g>
				<defs>
					<filter id="Adobe_OpacityMaskFilter_1_" filterUnits="userSpaceOnUse" x="-18.5" y="-7" width="49" height="3">
						<feColorMatrix  type="matrix" values="1 0 0 0 0  0 1 0 0 0  0 0 1 0 0  0 0 0 1 0"/>
					</filter>
				</defs>
				<mask maskUnits="userSpaceOnUse" x="-18.5" y="-7" width="49" height="3" id="mask-4_1_">
					<g class="st5">
						<polygon id="path-3_1_" class="st3" points="-19.5,78 78.5,78 78.5,-18 -19.5,-18 						"/>
					</g>
				</mask>
				<polygon id="Fill-4" class="st6" points="-18.5,-4 30.5,-4 30.5,-7 -18.5,-7 				"/>
				<defs>
					<filter id="Adobe_OpacityMaskFilter_2_" filterUnits="userSpaceOnUse" x="-17.5" y="56" width="49" height="3">
						<feColorMatrix  type="matrix" values="1 0 0 0 0  0 1 0 0 0  0 0 1 0 0  0 0 0 1 0"/>
					</filter>
				</defs>
				<mask maskUnits="userSpaceOnUse" x="-17.5" y="56" width="49" height="3" id="mask-4_2_">
					<g class="st7">
						<polygon id="path-3_2_" class="st3" points="-19.5,78 78.5,78 78.5,-18 -19.5,-18 						"/>
					</g>
				</mask>
				<polygon id="Fill-6" class="st8" points="-17.5,59 31.5,59 31.5,56 -17.5,56 				"/>
				<defs>
					<filter id="Adobe_OpacityMaskFilter_3_" filterUnits="userSpaceOnUse" x="-4.5" y="62" width="22" height="9">
						<feColorMatrix  type="matrix" values="1 0 0 0 0  0 1 0 0 0  0 0 1 0 0  0 0 0 1 0"/>
					</filter>
				</defs>
				<mask maskUnits="userSpaceOnUse" x="-4.5" y="62" width="22" height="9" id="mask-4_3_">
					<g class="st9">
						<polygon id="path-3_3_" class="st3" points="-19.5,78 78.5,78 78.5,-18 -19.5,-18 						"/>
					</g>
				</mask>
				<path id="Fill-7" class="st10" d="M-0.2,65.2c-0.7,0-1.2,0.6-1.2,1.3v0.1c0,0.7,0.6,1.3,1.2,1.3h13.3c0.7,0,1.2-0.6,1.2-1.3
					v-0.1c0-0.7-0.6-1.3-1.2-1.3H-0.2z M13.2,71H-0.2c-2.4,0-4.3-2-4.3-4.4v-0.1c0-2.4,1.9-4.4,4.3-4.4h13.3c2.4,0,4.3,2,4.3,4.4
					v0.1C17.5,69,15.6,71,13.2,71L13.2,71z"/>
				<defs>
					<filter id="Adobe_OpacityMaskFilter_4_" filterUnits="userSpaceOnUse" x="22.5" y="2" width="56" height="57">
						<feColorMatrix  type="matrix" values="1 0 0 0 0  0 1 0 0 0  0 0 1 0 0  0 0 0 1 0"/>
					</filter>
				</defs>
				<mask maskUnits="userSpaceOnUse" x="22.5" y="2" width="56" height="57" id="mask-4_4_">
					<g class="st11">
						<polygon id="path-3_4_" class="st3" points="-19.5,78 78.5,78 78.5,-18 -19.5,-18 						"/>
					</g>
				</mask>
				<path id="Fill-8" class="st12" d="M50.5,5.3c-13.7,0-24.8,11.3-24.8,25.2s11.1,25.2,24.8,25.2c13.7,0,24.8-11.3,24.8-25.2
					S64.2,5.3,50.5,5.3 M50.5,59c-15.4,0-28-12.8-28-28.5C22.5,14.8,35.1,2,50.5,2s28,12.8,28,28.5C78.5,46.2,66,59,50.5,59"/>
				<defs>
					<filter id="Adobe_OpacityMaskFilter_5_" filterUnits="userSpaceOnUse" x="39.5" y="19" width="20" height="23">
						<feColorMatrix  type="matrix" values="1 0 0 0 0  0 1 0 0 0  0 0 1 0 0  0 0 0 1 0"/>
					</filter>
				</defs>
				<mask maskUnits="userSpaceOnUse" x="39.5" y="19" width="20" height="23" id="mask-4_5_">
					<g class="st13">
						<polygon id="path-3_5_" class="st3" points="-19.5,78 78.5,78 78.5,-18 -19.5,-18 						"/>
					</g>
				</mask>
				<path id="Fill-9" class="st14" d="M59.1,36.9c0.3,0.3,0.4,0.7,0.4,1.2c0,0.6-0.3,1.1-0.8,1.5c-1,0.8-2.1,1.4-3.3,1.8
					c-1.2,0.4-2.3,0.6-3.5,0.6c-2.3,0-4.2-0.7-5.8-2c-1.5-1.4-2.5-3.3-3.1-5.8h-2.2c-0.4,0-0.7-0.1-1-0.4c-0.3-0.2-0.4-0.5-0.4-0.9
					c0-0.4,0.1-0.7,0.4-0.9c0.3-0.2,0.6-0.3,1-0.3h1.9c0-0.3,0-0.6,0-1.2c0-0.5,0-0.9,0-1.2h-1.9c-0.4,0-0.7-0.1-1-0.4
					c-0.3-0.2-0.4-0.5-0.4-0.9c0-0.4,0.1-0.7,0.4-0.9c0.3-0.2,0.6-0.4,1-0.4h2.2c0.5-2.5,1.5-4.4,3.1-5.8c1.5-1.4,3.4-2,5.7-2
					c1.2,0,2.3,0.2,3.5,0.6c1.2,0.4,2.3,1,3.3,1.8c0.3,0.2,0.5,0.4,0.6,0.7c0.1,0.2,0.2,0.5,0.2,0.8c0,0.5-0.1,0.9-0.4,1.2
					c-0.3,0.3-0.6,0.5-1,0.5c-0.2,0-0.4,0-0.6-0.1c-0.2-0.1-0.4-0.2-0.7-0.4c-0.9-0.6-1.7-1.1-2.4-1.4c-0.7-0.3-1.5-0.4-2.2-0.4
					c-1.3,0-2.3,0.4-3.1,1.1c-0.8,0.7-1.3,1.9-1.6,3.4h4.4c0.4,0,0.7,0.1,1,0.4c0.3,0.2,0.4,0.5,0.4,0.9c0,0.4-0.1,0.7-0.4,0.9
					c-0.3,0.2-0.6,0.4-1,0.4h-4.6c0,0.3,0,0.6,0,1.2c0,0.5,0,0.9,0,1.2h4.6c0.4,0,0.7,0.1,1,0.3c0.3,0.2,0.4,0.5,0.4,0.9
					c0,0.4-0.1,0.7-0.4,0.9c-0.3,0.2-0.6,0.4-1,0.4h-4.4c0.3,1.5,0.8,2.7,1.6,3.4c0.8,0.7,1.8,1.1,3.1,1.1c0.7,0,1.4-0.1,2.1-0.4
					c0.7-0.3,1.5-0.7,2.5-1.4c0.3-0.2,0.5-0.3,0.7-0.4c0.2-0.1,0.4-0.1,0.6-0.1C58.5,36.4,58.8,36.6,59.1,36.9"/>
				<defs>
					<filter id="Adobe_OpacityMaskFilter_6_" filterUnits="userSpaceOnUse" x="-4.5" y="14" width="21" height="19">
						<feColorMatrix  type="matrix" values="1 0 0 0 0  0 1 0 0 0  0 0 1 0 0  0 0 0 1 0"/>
					</filter>
				</defs>
				<mask maskUnits="userSpaceOnUse" x="-4.5" y="14" width="21" height="19" id="mask-4_6_">
					<g class="st15">
						<polygon id="path-3_6_" class="st3" points="-19.5,78 78.5,78 78.5,-18 -19.5,-18 						"/>
					</g>
				</mask>
				<path id="Fill-10" class="st16" d="M-0.5,18.2c0.9-1,2.5-1,3.4,0l2,2.1c0.6,0.7,1.7,0.7,2.3,0v0l2-2.1c0.9-1,2.5-1,3.4,0
					c0.9,1,0.9,2.6,0,3.7l-6.6,7l-6.6-7C-1.5,20.9-1.5,19.2-0.5,18.2L-0.5,18.2z M4.9,32.5c0.6,0.7,1.7,0.7,2.3,0l7.7-8.2
					c2.2-2.4,2.2-6.2,0-8.5c-2.2-2.4-5.8-2.4-8,0L6,16.7l-0.8-0.9c-2.2-2.4-5.8-2.4-8,0C-5,18.1-5,22-2.8,24.3L4.9,32.5z"/>
			</g>
		</g>
	</g>
</g>
</svg>
