<?xml version="1.0" encoding="utf-8"?>
<!-- Generator: Adobe Illustrator 24.2.3, SVG Export Plug-In . SVG Version: 6.00 Build 0)  -->
<svg version="1.1" id="Calque_1" xmlns="http://www.w3.org/2000/svg" xmlns:xlink="http://www.w3.org/1999/xlink" x="0px" y="0px"
	 viewBox="0 0 130.2 130.5" style="enable-background:new 0 0 130.2 130.5;" xml:space="preserve">
<style type="text/css">
	.st0{fill-rule:evenodd;clip-rule:evenodd;fill:#EAF0FF;}
	.st1{fill-rule:evenodd;clip-rule:evenodd;fill:#FFFFFF;}
	.st2{fill-rule:evenodd;clip-rule:evenodd;fill:#EF4D55;}
	.st3{fill:#22234F;}
</style>
<g id="Page-1">
	<g id="Home" transform="translate(-545.000000, -774.000000)">
		<g id="Group-2" transform="translate(545.000000, 774.000000)">
			<path id="Oval" class="st0" d="M102,9.2C71.7-9.1,32.4,0.8,14.2,31.3C3.7,48.7-4.1,68.1,2.4,85.8C7.2,99,29,108.7,41.9,116.5
				c30.3,18.3,62.9,24.7,82-19c15.2-34.7-0.3-42-9.9-64.3C109.2,22.1,115.9,17.6,102,9.2z"/>
			<path id="Oval_1_" class="st1" d="M46.4,91.7C59.5,77.1,66.1,66,66.1,58.4c0-11.4-9.2-20.7-20.5-20.7S25.1,47,25.1,58.4
				C25.1,66,32.2,77.1,46.4,91.7z"/>
			<path id="Oval_2_" class="st1" d="M99.7,50.7c10.2-11.4,15.3-20,15.3-25.9c0-8.9-7.2-16.1-16-16.1s-16,7.2-16,16.1
				C83.1,30.7,88.6,39.3,99.7,50.7z"/>
			<circle id="Oval_3_" class="st2" cx="45.1" cy="54.7" r="8"/>
			<circle id="Oval_4_" class="st2" cx="100.1" cy="20.7" r="7"/>
			<g id="_x30_02-destination" transform="translate(36.378009, 29.364468)">
				<path id="Shape" class="st3" d="M6,4C-6.8,4-17.3,14.6-17.3,27.6c0,8.1,3.8,16.8,11.3,25.8c1.1,1.3,2.2,2.6,3.3,3.7
					c-4.8,1.3-7.7,3.7-7.7,6.5c0,5,8.5,7.6,16.5,7.6c8,0,16.5-2.7,16.5-7.6c0-2.8-2.9-5.2-7.7-6.5c1.9-2.1,4-4.5,6-7.2
					c0.5-0.6,0.3-1.5-0.3-2c-0.6-0.5-1.5-0.3-2,0.3c-2.4,3.3-5,6.1-7.2,8.4c-0.3,0.1-0.5,0.3-0.6,0.6c-2,2-3.7,3.5-4.7,4.3
					c-1-0.8-2.6-2.3-4.6-4.2c-0.1-0.3-0.4-0.6-0.7-0.7c-6.3-6.4-15.2-17.6-15.2-29.1C-14.5,16.1-5.3,6.8,6,6.8s20.5,9.3,20.5,20.8
					c0,5-1.7,10.4-5,16.1c-0.4,0.7-0.2,1.5,0.5,1.9c0.7,0.4,1.5,0.2,1.9-0.5c3.6-6.1,5.4-12,5.4-17.5C29.4,14.6,18.9,4,6,4z
					 M5.2,64.6c0.3,0.2,0.6,0.3,0.9,0.3s0.6-0.1,0.9-0.3c0.2-0.1,2.5-2,5.6-5.1c4.7,1,7.2,2.8,7.2,4.2c0,1-1.4,2.2-3.6,3.1
					c-2.7,1.1-6.3,1.7-10.1,1.7c-8.4,0-13.7-2.9-13.7-4.8c0-1.3,2.5-3.2,7.2-4.2C2.7,62.6,5,64.4,5.2,64.6z"/>
				<path id="Path" class="st3" d="M6,17.4c-2.2,0-4.2,0.7-6,2c-0.6,0.5-0.7,1.3-0.3,1.9c0.5,0.6,1.3,0.7,1.9,0.3
					c1.3-1,2.8-1.5,4.3-1.5c4,0,7.2,3.3,7.2,7.3c0,4-3.3,7.3-7.2,7.3s-7.2-3.3-7.2-7.3c0-0.7,0.1-1.4,0.3-2c0.2-0.7-0.2-1.5-0.9-1.7
					c-0.7-0.2-1.5,0.2-1.7,1C-3.8,25.7-4,26.6-4,27.5c0,5.6,4.5,10.1,10,10.1c5.5,0,10-4.5,10-10.1S11.6,17.4,6,17.4z"/>
				<path id="Shape_1_" class="st3" d="M66.7,16.2c0.7-0.8,1.4-1.6,2.2-2.5c5.8-7,8.8-13.7,8.8-20c0-10.1-8.2-18.4-18.3-18.4
					c-7.4,0-14,4.4-16.9,11.2c-0.3,0.7,0,1.5,0.7,1.8c0.7,0.3,1.5,0,1.8-0.7c2.4-5.8,8.1-9.5,14.3-9.5c8.6,0,15.5,7,15.5,15.6
					c0,11.6-12.2,22.8-15.5,25.6c-0.7-0.6-1.9-1.7-3.3-3c-0.1-0.3-0.4-0.5-0.6-0.6c-4.8-4.9-11.6-13.3-11.6-22
					c0-0.8-0.6-1.4-1.4-1.4C41.7-7.7,41-7,41-6.3c0,6.3,3,13,8.8,20c0.7,0.9,1.5,1.7,2.2,2.5c-3.6,1.1-5.7,2.9-5.7,5.2
					c0,1.9,1.5,3.5,4.3,4.7c2.4,1,5.5,1.5,8.8,1.5c3.3,0,6.4-0.5,8.8-1.5c2.8-1.1,4.3-2.8,4.3-4.7C72.4,19.1,70.3,17.3,66.7,16.2z
					 M59.4,24.7c-6.6,0-10.3-2.2-10.3-3.4c0-0.7,1.6-2.1,5.2-2.9c2.4,2.3,4.1,3.7,4.2,3.8c0.3,0.2,0.6,0.3,0.9,0.3s0.6-0.1,0.9-0.3
					c0.1-0.1,1.9-1.5,4.2-3.8c1.6,0.3,2.9,0.8,3.9,1.4c0.8,0.5,1.3,1,1.3,1.4C69.6,22.5,66,24.7,59.4,24.7z"/>
				<path id="Shape_2_" class="st3" d="M59.4-14.6c-4.6,0-8.3,3.8-8.3,8.4c0,4.6,3.7,8.4,8.3,8.4c4.6,0,8.3-3.8,8.3-8.4
					S64-14.6,59.4-14.6z M59.4-0.6c-3,0-5.5-2.5-5.5-5.5s2.5-5.5,5.5-5.5c3,0,5.5,2.5,5.5,5.5C64.8-3.1,62.4-0.6,59.4-0.6z"/>
				<path id="Path_1_" class="st3" d="M42,20h-0.7c-0.5,0-1,0-1.5,0.1c-0.8,0.1-1.4,0.7-1.3,1.4c0.1,0.6,0.7,1.1,1.5,1.1
					c0.1,0,0.1,0,0.2,0c0.4,0,0.7-0.1,1.1-0.1H42v0c0.8,0,1.5-0.5,1.5-1.2C43.5,20.5,42.9,20,42,20z"/>
				<path id="Path_2_" class="st3" d="M37,62.9C37,62.9,37,62.9,37,62.9l-2,0c-0.8,0-1.5,0.6-1.5,1.3c0,0.7,0.7,1.3,1.5,1.3
					c0,0,0,0,0,0l2,0c0.8,0,1.5-0.6,1.5-1.3C38.5,63.5,37.9,62.9,37,62.9z"/>
				<path id="Path_3_" class="st3" d="M42.9,38.5h-2c-0.8,0-1.5,0.6-1.5,1.3c0,0.7,0.7,1.3,1.5,1.3h2c0.8,0,1.5-0.6,1.5-1.3
					C44.4,39.1,43.7,38.5,42.9,38.5z"/>
				<path id="Path_4_" class="st3" d="M35.7,23c-0.5-0.6-1.5-0.6-2-0.1c-0.5,0.5-1,1-1.5,1.6c-0.5,0.6-0.3,1.5,0.3,2
					c0.3,0.2,0.6,0.3,0.8,0.3c0.5,0,0.9-0.2,1.2-0.6c0.3-0.4,0.7-0.8,1.1-1.2C36.2,24.4,36.2,23.5,35.7,23z"/>
				<path id="Path_5_" class="st3" d="M44.5,62.9C44.5,62.9,44.5,62.9,44.5,62.9l-2,0c-0.8,0-1.5,0.6-1.5,1.3c0,0.7,0.7,1.3,1.5,1.3
					c0,0,0,0,0,0l2,0c0.8,0,1.5-0.6,1.5-1.3C46,63.5,45.4,62.9,44.5,62.9z"/>
				<path id="Path_6_" class="st3" d="M29.5,62.9C29.5,62.9,29.5,62.9,29.5,62.9l-2,0c-0.8,0-1.5,0.6-1.5,1.3c0,0.7,0.7,1.3,1.5,1.3
					c0,0,0,0,0,0l2,0c0.8,0,1.5-0.6,1.5-1.3C31,63.5,30.4,62.9,29.5,62.9z"/>
				<path id="Path_7_" class="st3" d="M36.2,37.4c-0.4-0.3-0.8-0.6-1.2-1c-0.5-0.6-1.4-0.6-1.9,0c-0.5,0.6-0.5,1.5,0,2.1
					c0.5,0.5,1.1,1,1.6,1.4c0.2,0.2,0.5,0.2,0.7,0.2c0.5,0,0.9-0.2,1.2-0.7C37.1,38.8,36.9,37.9,36.2,37.4z"/>
				<path id="Path_8_" class="st3" d="M32.7,31.6c-0.1-0.5-0.1-1.1-0.1-1.6l0-0.1c0-0.8-0.5-1.5-1.2-1.5c0,0,0,0,0,0
					c-0.6,0-1.2,0.7-1.2,1.5l0,0.1c0,0.7,0.1,1.5,0.2,2.2c0.1,0.7,0.6,1.2,1.2,1.2c0.1,0,0.2,0,0.2,0C32.4,33.3,32.8,32.5,32.7,31.6
					z"/>
				<path id="Path_9_" class="st3" d="M50.4,38.5h-2c-0.8,0-1.5,0.6-1.5,1.3c0,0.7,0.7,1.3,1.5,1.3h2c0.8,0,1.5-0.6,1.5-1.3
					C51.9,39.1,51.2,38.5,50.4,38.5z"/>
				<path id="Path_10_" class="st3" d="M72.2,40.8c-0.5-0.5-1.1-0.9-1.6-1.3c-0.6-0.4-1.5-0.2-1.8,0.6c-0.4,0.7-0.1,1.7,0.5,2.1
					c0.5,0.3,0.9,0.6,1.3,1c0.2,0.2,0.5,0.3,0.8,0.3c0.4,0,0.8-0.2,1.1-0.6C72.9,42.3,72.8,41.3,72.2,40.8z"/>
				<path id="Path_11_" class="st3" d="M67.7,64c-0.1-0.7-0.9-1.1-1.7-1C65.5,63,65,63,64.5,63l-0.3,0c-0.8,0-1.5,0.5-1.5,1.2
					c0,0.7,0.7,1.2,1.5,1.2c0,0,0,0,0,0l0.3,0c0.6,0,1.3,0,1.9-0.1C67.2,65.2,67.8,64.6,67.7,64z"/>
				<path id="Path_12_" class="st3" d="M74,59.2c-0.5-0.6-1.4-0.6-1.9-0.1c-0.4,0.4-0.8,0.8-1.2,1.1c-0.6,0.5-0.8,1.4-0.3,2.1
					c0.3,0.4,0.7,0.6,1.1,0.6c0.3,0,0.5-0.1,0.8-0.3c0.6-0.4,1.1-0.9,1.6-1.4C74.5,60.7,74.5,59.8,74,59.2z"/>
				<path id="Path_13_" class="st3" d="M76.5,52c-0.8-0.2-1.5,0.4-1.7,1.2c-0.1,0.6-0.2,1.2-0.4,1.7c-0.3,0.8,0.1,1.7,0.9,2
					c0.2,0.1,0.3,0.1,0.5,0.1c0.6,0,1.1-0.4,1.3-1c0.2-0.7,0.4-1.5,0.5-2.2C77.8,53,77.3,52.2,76.5,52z"/>
				<path id="Path_14_" class="st3" d="M76.8,48.3c-0.2-0.7-0.4-1.5-0.7-2.2c-0.3-0.8-1.1-1.1-1.8-0.8c-0.7,0.4-1,1.3-0.7,2.1
					c0.2,0.5,0.4,1.1,0.6,1.7c0.2,0.7,0.7,1.1,1.3,1.1c0.1,0,0.2,0,0.4-0.1C76.6,50,77,49.1,76.8,48.3z"/>
				<path id="Path_15_" class="st3" d="M57.9,38.5h-2c-0.8,0-1.5,0.6-1.5,1.3c0,0.7,0.7,1.3,1.5,1.3h2c0.8,0,1.5-0.6,1.5-1.3
					C59.4,39.1,58.7,38.5,57.9,38.5z"/>
				<path id="Path_16_" class="st3" d="M51.2,62.9C51.2,62.9,51.2,62.9,51.2,62.9l-2,0c-0.8,0-1.5,0.6-1.5,1.3
					c0,0.7,0.7,1.3,1.5,1.3c0,0,0,0,0,0l2,0c0.8,0,1.5-0.6,1.5-1.3C52.7,63.5,52,62.9,51.2,62.9z"/>
				<path id="Path_17_" class="st3" d="M65.4,38.5c-0.2,0-0.4,0-0.6,0h-1.4c-0.8,0-1.5,0.6-1.5,1.3c0,0.7,0.7,1.3,1.5,1.3h1.4v0
					c0.2,0,0.3,0,0.5,0c0,0,0,0,0.1,0c0.8,0,1.5-0.5,1.5-1.2C66.9,39.1,66.3,38.5,65.4,38.5z"/>
				<path id="Path_18_" class="st3" d="M58.7,62.9C58.7,62.9,58.7,62.9,58.7,62.9l-2,0c-0.8,0-1.5,0.6-1.5,1.3
					c0,0.7,0.7,1.3,1.5,1.3c0,0,0,0,0,0l2,0c0.8,0,1.5-0.6,1.5-1.3C60.2,63.5,59.5,62.9,58.7,62.9z"/>
			</g>
		</g>
	</g>
</g>
</svg>
